<?xml version="1.0" encoding="UTF-8"?>
<svg id="Layer_1" data-name="Layer 1" xmlns="http://www.w3.org/2000/svg" xmlns:xlink="http://www.w3.org/1999/xlink" viewBox="0 0 1200 630">
  <defs>
    <style>
      .cls-1, .cls-2 {
        fill: none;
      }

      .cls-3 {
        fill: #fff;
      }

      .cls-4 {
        fill: #5956e9;
      }

      .cls-2 {
        stroke: #ffdc60;
        stroke-miterlimit: 10;
        stroke-width: 1.15px;
      }

      .cls-5 {
        fill: url(#radial-gradient);
      }
    </style>
    <radialGradient id="radial-gradient" cx="182.67" cy="315" fx="182.67" fy="315" r="159.52" gradientUnits="userSpaceOnUse">
      <stop offset=".9" stop-color="#fff"/>
      <stop offset="1" stop-color="#ededed"/>
    </radialGradient>
  </defs>
  <g>
    <path d="M394.44,297.08v-90.58h31.18c7.16,0,13.05,1.21,17.66,3.62,4.61,2.42,8.04,5.67,10.29,9.77,2.24,4.1,3.36,8.65,3.36,13.65,0,5.61-1.49,10.7-4.46,15.27-2.98,4.57-7.61,7.85-13.91,9.83l19.28,38.43h-15.92l-17.6-36.49h-16.17v36.49h-13.72Zm13.72-46.84h16.69c6.21,0,10.76-1.51,13.65-4.53,2.89-3.02,4.33-6.94,4.33-11.77s-1.42-8.69-4.27-11.58c-2.85-2.89-7.46-4.33-13.84-4.33h-16.56v32.22Z"/>
    <path d="M491.61,298.63c-5.43,0-9.92-.9-13.46-2.72-3.54-1.81-6.17-4.21-7.89-7.18-1.73-2.98-2.59-6.23-2.59-9.77,0-6.21,2.41-11.13,7.25-14.75,4.83-3.62,11.73-5.43,20.7-5.43h16.82v-1.16c0-5-1.36-8.75-4.08-11.26-2.72-2.5-6.23-3.75-10.55-3.75-3.8,0-7.1,.93-9.9,2.78-2.8,1.86-4.51,4.59-5.11,8.22h-13.72c.43-4.66,2.01-8.65,4.72-11.97,2.72-3.32,6.17-5.86,10.35-7.63,4.18-1.77,8.78-2.65,13.78-2.65,8.97,0,15.92,2.35,20.83,7.05,4.92,4.7,7.38,11.11,7.38,19.21v39.47h-11.9l-1.16-11c-1.81,3.54-4.44,6.51-7.89,8.93-3.45,2.41-7.98,3.62-13.59,3.62Zm2.72-11.13c3.71,0,6.84-.88,9.38-2.65,2.54-1.77,4.53-4.12,5.95-7.05,1.42-2.93,2.31-6.17,2.65-9.7h-15.27c-5.43,0-9.3,.95-11.58,2.85-2.29,1.9-3.43,4.27-3.43,7.12s1.1,5.24,3.3,6.92c2.2,1.68,5.2,2.52,8.99,2.52Z"/>
    <path d="M549.32,220.74c-2.59,0-4.72-.8-6.41-2.39-1.68-1.6-2.52-3.6-2.52-6.02s.84-4.42,2.52-6.02c1.68-1.59,3.82-2.39,6.41-2.39s4.72,.8,6.4,2.39c1.68,1.6,2.52,3.6,2.52,6.02s-.84,4.42-2.52,6.02c-1.68,1.6-3.82,2.39-6.4,2.39Zm-6.86,76.34v-64.18h13.72v64.18h-13.72Z"/>
    <path d="M573.65,297.08v-64.18h12.16l1.04,11.26c1.98-3.97,4.89-7.09,8.73-9.38,3.84-2.28,8.26-3.43,13.26-3.43,7.76,0,13.86,2.42,18.31,7.25,4.44,4.83,6.66,12.03,6.66,21.61v36.88h-13.59v-35.45c0-12.42-5.09-18.63-15.27-18.63-5.09,0-9.3,1.81-12.62,5.43-3.32,3.62-4.98,8.8-4.98,15.53v33.12h-13.72Z"/>
    <path d="M700.32,297.21l-24.46-90.7h14.75l17.99,75.05,20.7-75.05h15.14l20.06,75.05,17.99-75.05h14.75l-24.84,90.58h-16.04l-19.8-71.04-20.44,71.04-15.79,.13Z"/>
    <path d="M808.62,297.08v-93.16h13.72v39.34c2.15-3.71,5.15-6.62,8.99-8.73,3.84-2.11,8.09-3.17,12.74-3.17,7.68,0,13.72,2.42,18.12,7.25,4.4,4.83,6.6,12.03,6.6,21.61v36.88h-13.59v-35.45c0-12.42-4.96-18.63-14.88-18.63-5.18,0-9.47,1.81-12.87,5.43-3.41,3.62-5.11,8.8-5.11,15.53v33.12h-13.72Z"/>
    <path d="M892.08,220.74c-2.59,0-4.72-.8-6.41-2.39-1.68-1.6-2.52-3.6-2.52-6.02s.84-4.42,2.52-6.02c1.68-1.59,3.82-2.39,6.41-2.39s4.72,.8,6.4,2.39c1.68,1.6,2.52,3.6,2.52,6.02s-.84,4.42-2.52,6.02c-1.68,1.6-3.82,2.39-6.4,2.39Zm-6.86,76.34v-64.18h13.72v64.18h-13.72Z"/>
    <path d="M942.03,298.63c-8.11,0-14.8-1.98-20.06-5.95-5.26-3.97-8.28-9.23-9.06-15.79h13.84c.69,2.93,2.33,5.46,4.92,7.57,2.59,2.11,6,3.17,10.22,3.17s7.16-.86,9.06-2.59c1.9-1.72,2.85-3.71,2.85-5.95,0-3.28-1.32-5.5-3.95-6.66-2.63-1.16-6.28-2.22-10.93-3.17-3.62-.78-7.23-1.81-10.8-3.1-3.58-1.29-6.56-3.13-8.93-5.5-2.37-2.37-3.56-5.58-3.56-9.64,0-5.61,2.15-10.29,6.47-14.04,4.31-3.75,10.35-5.63,18.11-5.63,7.16,0,12.96,1.73,17.4,5.18,4.44,3.45,7.05,8.33,7.83,14.62h-13.2c-.43-2.76-1.71-4.92-3.82-6.47-2.12-1.55-4.94-2.33-8.48-2.33s-6.13,.71-8.02,2.13c-1.9,1.42-2.85,3.26-2.85,5.5s1.31,4.01,3.95,5.31c2.63,1.29,6.1,2.46,10.42,3.49,4.31,.95,8.3,2.05,11.97,3.3,3.67,1.25,6.62,3.09,8.86,5.5,2.24,2.42,3.37,5.95,3.37,10.61,.08,5.87-2.18,10.74-6.79,14.62-4.62,3.88-10.89,5.82-18.83,5.82Z"/>
    <path d="M982.01,325.54v-92.64h12.29l1.42,9.96c2.07-3.02,4.92-5.69,8.54-8.02,3.62-2.33,8.28-3.49,13.97-3.49,6.21,0,11.69,1.47,16.43,4.4,4.74,2.93,8.48,6.94,11.19,12.03,2.72,5.09,4.08,10.87,4.08,17.34s-1.36,12.23-4.08,17.27c-2.72,5.05-6.45,9.02-11.19,11.9-4.75,2.89-10.27,4.33-16.56,4.33-5,0-9.43-.99-13.26-2.98-3.84-1.98-6.88-4.79-9.12-8.41v38.3h-13.72Zm33.77-38.82c5.86,0,10.7-2.01,14.49-6.02,3.79-4.01,5.69-9.25,5.69-15.72,0-4.23-.86-7.98-2.59-11.26-1.73-3.28-4.1-5.84-7.12-7.7-3.02-1.85-6.51-2.78-10.48-2.78-5.87,0-10.68,2.03-14.43,6.08-3.75,4.06-5.63,9.27-5.63,15.66s1.88,11.71,5.63,15.72c3.75,4.01,8.56,6.02,14.43,6.02Z"/>
    <path d="M1094.19,298.63c-6.3,0-11.88-1.4-16.76-4.2-4.87-2.8-8.69-6.71-11.45-11.71-2.76-5-4.14-10.82-4.14-17.47s1.36-12.64,4.08-17.73c2.72-5.09,6.51-9.06,11.39-11.9,4.87-2.85,10.55-4.27,17.02-4.27s11.78,1.4,16.43,4.21c4.66,2.8,8.28,6.53,10.87,11.19,2.59,4.66,3.88,9.79,3.88,15.4,0,.86-.02,1.79-.06,2.78-.04,.99-.11,2.09-.19,3.3h-49.95c.43,6.21,2.48,10.93,6.15,14.17,3.67,3.23,7.91,4.85,12.75,4.85,3.88,0,7.14-.88,9.77-2.65,2.63-1.77,4.59-4.16,5.89-7.18h13.72c-1.73,6.04-5.16,11.09-10.29,15.14-5.13,4.06-11.5,6.08-19.09,6.08Zm0-56.03c-4.57,0-8.63,1.36-12.16,4.08-3.54,2.72-5.69,6.79-6.47,12.23h36.23c-.26-5-2.03-8.97-5.31-11.9-3.28-2.93-7.38-4.4-12.29-4.4Z"/>
    <path d="M1139.09,297.08v-64.18h12.29l1.16,12.16c2.24-4.23,5.37-7.57,9.38-10.03,4.01-2.46,8.86-3.69,14.56-3.69v14.36h-3.75c-3.8,0-7.18,.63-10.16,1.88-2.98,1.25-5.35,3.36-7.12,6.34-1.77,2.98-2.65,7.1-2.65,12.36v30.8h-13.72Z"/>
    <path d="M394.44,428.28v-90.58h16.17l30.67,60.3,30.54-60.3h16.17v90.58h-13.72v-66.9l-27.69,53.96h-10.61l-27.82-53.83v66.77h-13.72Z"/>
    <path d="M535.22,429.84c-6.3,0-11.88-1.4-16.76-4.2-4.87-2.8-8.69-6.71-11.45-11.71-2.76-5-4.14-10.82-4.14-17.47s1.36-12.64,4.08-17.73c2.72-5.09,6.51-9.06,11.39-11.9,4.87-2.85,10.55-4.27,17.02-4.27s11.78,1.4,16.43,4.2c4.66,2.8,8.28,6.53,10.87,11.19,2.59,4.66,3.88,9.79,3.88,15.4,0,.86-.02,1.79-.06,2.78-.04,.99-.11,2.09-.19,3.3h-49.95c.43,6.21,2.48,10.93,6.15,14.17,3.67,3.23,7.91,4.85,12.75,4.85,3.88,0,7.14-.88,9.77-2.65,2.63-1.77,4.59-4.16,5.89-7.18h13.72c-1.73,6.04-5.16,11.09-10.29,15.14-5.13,4.06-11.5,6.08-19.09,6.08Zm0-56.03c-4.57,0-8.63,1.36-12.16,4.08-3.54,2.72-5.69,6.79-6.47,12.23h36.23c-.26-5-2.03-8.97-5.31-11.9-3.28-2.93-7.38-4.4-12.29-4.4Z"/>
    <path d="M609.36,429.84c-6.21,0-11.69-1.47-16.43-4.4-4.75-2.93-8.46-6.94-11.13-12.03-2.67-5.09-4.01-10.87-4.01-17.34s1.34-12.23,4.01-17.27c2.67-5.05,6.41-9.01,11.19-11.9,4.79-2.89,10.29-4.33,16.5-4.33,5.09,0,9.55,.99,13.39,2.98,3.84,1.98,6.84,4.79,8.99,8.41v-38.82h13.72v93.16h-12.29l-1.42-9.96c-2.07,3.02-4.92,5.69-8.54,8.02-3.62,2.33-8.28,3.49-13.98,3.49Zm2.46-11.9c5.86,0,10.68-2.03,14.43-6.08,3.75-4.05,5.63-9.27,5.63-15.66s-1.88-11.71-5.63-15.72c-3.75-4.01-8.56-6.02-14.43-6.02s-10.7,2.01-14.49,6.02c-3.8,4.01-5.69,9.25-5.69,15.72,0,4.23,.86,7.98,2.59,11.26,1.72,3.28,4.12,5.84,7.18,7.7,3.06,1.86,6.53,2.78,10.42,2.78Z"/>
    <path d="M670.05,351.94c-2.59,0-4.72-.8-6.41-2.39-1.68-1.59-2.52-3.6-2.52-6.02s.84-4.42,2.52-6.02c1.68-1.59,3.82-2.39,6.41-2.39s4.72,.8,6.4,2.39c1.68,1.6,2.52,3.6,2.52,6.02s-.84,4.42-2.52,6.02c-1.68,1.6-3.82,2.39-6.4,2.39Zm-6.86,76.34v-64.18h13.72v64.18h-13.72Z"/>
    <path d="M716.11,429.84c-5.43,0-9.92-.9-13.46-2.72-3.54-1.81-6.17-4.21-7.89-7.18-1.73-2.98-2.59-6.23-2.59-9.77,0-6.21,2.41-11.13,7.25-14.75,4.83-3.62,11.73-5.43,20.7-5.43h16.82v-1.16c0-5-1.36-8.75-4.08-11.26-2.72-2.5-6.23-3.75-10.55-3.75-3.8,0-7.1,.93-9.9,2.78-2.8,1.86-4.51,4.59-5.11,8.22h-13.72c.43-4.66,2.01-8.65,4.72-11.97,2.72-3.32,6.17-5.86,10.35-7.63,4.18-1.77,8.78-2.65,13.78-2.65,8.97,0,15.92,2.35,20.83,7.05,4.92,4.7,7.38,11.11,7.38,19.21v39.47h-11.9l-1.16-11c-1.81,3.54-4.44,6.51-7.89,8.93-3.45,2.41-7.98,3.62-13.59,3.62Zm2.72-11.13c3.71,0,6.84-.88,9.38-2.65,2.54-1.77,4.53-4.12,5.95-7.05,1.42-2.93,2.31-6.17,2.65-9.7h-15.27c-5.43,0-9.3,.95-11.58,2.85-2.29,1.9-3.43,4.27-3.43,7.12s1.1,5.24,3.3,6.92c2.2,1.68,5.2,2.52,8.99,2.52Z"/>
  </g>
  <g>
    <path class="cls-4" d="M341.6,249.17h0c-32.73-27.6-67.71-56.86-93-92.94l-.08-.03-.13-.05c-44.18,5.36-85.66,5.36-131.28,.04l-.21,.09-.2,.08c-28.17,35.1-59.64,67.15-92.86,92.8l-.05,.12-.04,.09c5.58,41.44,5.58,84.89-.04,131.45,0,.01,0,.02,0,.03h0c36.29,27.53,62.47,54.94,93,92.94l.12,.05,.09,.04c41.57-5.88,88.85-5.64,131.28-.04l.2-.08,.21-.09c28.98-38.41,52.93-60,92.86-92.8l.04-.09,.05-.11c-6.37-51.68-6.37-83.13,.04-131.46,0,0,0-.01,0-.02Zm-12.75,126.23l-.04,.1-.04,.08c-36.73,30.17-58.77,50.04-85.43,85.37l-.19,.08-.18,.08c-39.03-5.15-82.52-5.37-120.77,.04l-.08-.03-.11-.04c-28.09-34.96-52.17-60.17-85.56-85.5h0s0-.02,0-.03c5.17-42.83,5.17-82.81,.04-120.93l.03-.08,.04-.11c30.56-23.59,59.51-53.08,85.43-85.37l.19-.08,.19-.08c41.96,4.89,80.12,4.89,120.77-.04l.12,.05,.07,.03c23.27,33.2,55.45,60.11,85.56,85.5h0s0,.01,0,.02c-5.9,44.47-5.9,73.4-.04,120.94Z"/>
    <g>
      <path class="cls-1" d="M238.05,181.63l-.06-.03-.11-.05c-37.12,4.5-71.96,4.5-110.27,.04l-.17,.07-.17,.07c-23.66,29.49-50.09,56.41-78,77.95l-.04,.1-.03,.07c4.69,34.81,4.69,71.31-.03,110.41,0,0,0,.02,0,.03h0c30.49,23.13,52.48,46.15,78.12,78.07l.1,.04,.07,.03c34.92-4.94,74.64-4.73,110.27-.04l.17-.07,.18-.07c24.34-32.26,44.46-50.4,78-77.95l.03-.08,.04-.1c-5.35-43.41-5.35-69.83,.03-110.43,0,0,0-.01,0-.02h0c-27.49-23.19-56.87-47.76-78.12-78.07Z"/>
      <path class="cls-5" d="M328.89,254.43h0c-30.11-25.4-62.29-52.31-85.56-85.51l-.07-.03-.12-.05c-40.65,4.93-78.81,4.93-120.77,.04l-.19,.08-.19,.08c-25.91,32.3-54.86,61.78-85.43,85.37l-.04,.11-.03,.08c5.14,38.12,5.14,78.1-.04,120.93,0,.01,0,.02,0,.03h0c33.39,25.33,57.47,50.54,85.56,85.51l.11,.04,.08,.03c38.25-5.41,81.75-5.18,120.77-.04l.18-.08,.19-.08c26.66-35.34,48.7-55.2,85.43-85.37l.04-.08,.04-.1c-5.86-47.55-5.86-76.48,.04-120.94,0,0,0-.01,0-.02Zm-12.72,5.28c-5.39,40.6-5.39,67.01-.03,110.43l-.04,.1-.03,.08c-33.53,27.55-53.66,45.69-78,77.95l-.18,.07-.17,.07c-35.63-4.7-75.35-4.9-110.27,.04l-.07-.03-.1-.04c-25.64-31.92-47.63-54.94-78.12-78.07h0s0-.02,0-.03c4.72-39.1,4.72-75.61,.03-110.41l.03-.07,.04-.1c27.9-21.54,54.34-48.46,78-77.95l.17-.07,.17-.07c38.31,4.47,73.16,4.47,110.27-.04l.11,.05,.06,.03c21.25,30.31,50.63,54.88,78.12,78.07h0s0,.01,0,.02Z"/>
    </g>
    <path class="cls-4" d="M316.17,259.7h0c-27.49-23.19-56.87-47.76-78.12-78.07l-.06-.03-.11-.05c-37.12,4.5-71.96,4.5-110.27,.04l-.17,.07-.17,.07c-23.66,29.49-50.09,56.41-78,77.95l-.04,.1-.03,.07c4.69,34.81,4.69,71.31-.03,110.41,0,0,0,.02,0,.03h0c30.49,23.13,52.48,46.15,78.12,78.07l.1,.04,.07,.03c34.92-4.94,74.64-4.73,110.27-.04l.17-.07,.18-.07c24.34-32.26,44.46-50.4,78-77.95l.03-.08,.04-.1c-5.35-43.41-5.35-69.83,.03-110.43,0,0,0-.01,0-.02Zm-12.75,105.19l-.04,.09-.03,.07c-30.34,24.93-48.55,41.33-70.57,70.52l-.16,.07-.15,.06c-32.24-4.25-68.17-4.44-99.77,.03l-.06-.03-.09-.04c-23.2-28.88-43.1-49.71-70.68-70.63h0s0-.02,0-.03c4.27-35.38,4.27-68.41,.03-99.9l.03-.07,.04-.09c25.25-19.49,49.16-43.85,70.57-70.52l.15-.06,.16-.07c34.66,4.04,66.19,4.04,99.77-.03l.1,.04,.06,.02c19.22,27.42,45.81,49.66,70.68,70.63h0s0,0,0,.01c-4.87,36.73-4.87,60.63-.03,99.91Z"/>
    <g>
      <path class="cls-3" d="M137.83,422.97c-20.76-25.84-38.56-44.48-63.24-63.2h0s0-.02,0-.03l-12.71,5.26s0,.02,0,.03h0c27.58,20.93,47.48,41.75,70.68,70.63l.09,.04,5.27-12.71-.09-.04Z"/>
      <path class="cls-3" d="M290.66,359.78c-27.15,22.3-43.44,36.98-63.14,63.1l-.14,.06,5.26,12.7,.16-.07c22.02-29.19,40.23-45.6,70.57-70.52l.03-.07-12.71-5.26-.02,.06Z"/>
      <path class="cls-3" d="M227.24,423c-28.85-3.8-61-3.97-89.27,.03l-.05-.02-5.27,12.71,.06,.03c31.6-4.47,67.53-4.28,99.77-.03l.15-.06-5.26-12.7-.14,.06Z"/>
      <path class="cls-3" d="M74.62,270.36l.02-.06-12.71-5.26-.03,.07c4.24,31.49,4.24,64.52-.03,99.9l12.71-5.26c3.82-31.66,3.82-61.21,.03-89.38Z"/>
      <path class="cls-3" d="M61.97,264.95l-.04,.09,12.71,5.26,.03-.08c22.59-17.44,43.99-39.23,63.14-63.1l.14-.06-5.26-12.7-.15,.06c-21.41,26.68-45.32,51.04-70.57,70.52Z"/>
      <path class="cls-3" d="M290.71,359.64l-.03,.08,12.71,5.26,.04-.09c-4.84-39.28-4.84-63.18,.03-99.91l-12.71,5.26c-4.36,32.87-4.36,54.25-.03,89.39Z"/>
      <path class="cls-3" d="M138.1,207c31.02,3.62,59.22,3.62,89.27-.03l.09,.04,5.27-12.71-.1-.04c-33.58,4.07-65.1,4.07-99.77,.03l-.16,.07,5.26,12.7,.14-.06Z"/>
      <path class="cls-3" d="M227.5,207.03c17.2,24.54,40.99,44.43,63.24,63.2h0s0,0,0,.01l12.71-5.26s0,0,0-.01h0c-24.87-20.98-51.46-43.21-70.68-70.63l-.06-.02-5.27,12.71,.05,.02Z"/>
    </g>
    <path class="cls-4" d="M290.74,270.23h0c-22.25-18.77-46.04-38.66-63.24-63.2l-.05-.02-.09-.04c-30.05,3.65-58.25,3.65-89.27,.03l-.14,.06-.14,.06c-19.15,23.87-40.55,45.66-63.14,63.1l-.03,.08-.02,.06c3.8,28.18,3.8,57.72-.03,89.38,0,0,0,.02,0,.03h0c24.68,18.72,42.48,37.36,63.24,63.2l.09,.04,.05,.02c28.27-4,60.42-3.83,89.27-.03l.14-.06,.14-.06c19.71-26.12,36-40.8,63.14-63.1l.02-.06,.03-.08c-4.33-35.14-4.33-56.53,.03-89.39,0,0,0,0,0-.01Zm-12.74,84.15l-.03,.07-.02,.05c-23.95,19.68-38.33,32.63-55.71,55.68l-.13,.05-.12,.05c-25.45-3.36-53.82-3.5-78.77,.03l-.05-.02-.08-.03c-18.32-22.8-34.02-39.24-55.8-55.76h0s0-.02,0-.02c3.37-27.93,3.37-54,.02-78.86l.02-.05,.03-.07c19.93-15.39,38.81-34.61,55.71-55.68l.12-.05,.13-.05c27.37,3.19,52.25,3.19,78.77-.03l.08,.03,.04,.02c15.18,21.65,36.16,39.2,55.8,55.76h0s0,0,0,0c-3.85,29-3.85,47.87-.02,78.88Z"/>
    <g>
      <path class="cls-3" d="M265.25,349.24c-20.76,17.05-33.22,28.28-48.28,48.25l-.11,.05,5.26,12.7,.13-.05c17.39-23.04,31.76-36,55.71-55.68l.02-.05-12.71-5.26-.02,.04Z"/>
      <path class="cls-3" d="M216.75,397.58c-22.06-2.91-46.64-3.03-68.26,.02l-.04-.02-5.27,12.71,.05,.02c24.94-3.53,53.31-3.38,78.77-.03l.12-.05-5.26-12.7-.1,.04Z"/>
      <path class="cls-3" d="M87.3,354.5c21.78,16.52,37.48,32.96,55.8,55.76l.08,.03,5.27-12.71-.07-.03c-15.87-19.76-29.49-34.01-48.36-48.33h0s0-.01,0-.02l-12.71,5.26s0,.02,0,.02h0Z"/>
      <path class="cls-3" d="M265.29,349.14l-.03,.06,12.71,5.26,.03-.07c-3.82-31.01-3.82-49.88,.02-78.88l-12.71,5.26c-3.33,25.13-3.33,41.49-.02,68.36Z"/>
      <path class="cls-3" d="M216.95,232.44c13.15,18.76,31.34,33.97,48.36,48.33h0s0,0,0,0l12.71-5.26s0,0,0,0h0c-19.64-16.56-40.62-34.11-55.8-55.76l-.04-.02-5.27,12.71h.03Z"/>
      <path class="cls-3" d="M148.58,232.42c23.72,2.77,45.29,2.77,68.26-.02l.07,.03,5.27-12.71-.08-.03c-26.51,3.22-51.4,3.22-78.77,.03l-.13,.05,5.26,12.7,.11-.05Z"/>
      <path class="cls-3" d="M100.04,280.86l.02-.04-12.71-5.26-.02,.05c3.35,24.86,3.35,50.93-.02,78.86l12.71-5.26c2.92-24.21,2.92-46.8,.02-68.35Z"/>
      <path class="cls-3" d="M100.09,280.76c17.27-13.33,33.64-30,48.28-48.25l.1-.04-5.26-12.7-.12,.05c-16.9,21.06-35.78,40.29-55.71,55.68l-.03,.07,12.71,5.26,.03-.07Z"/>
    </g>
    <path class="cls-4" d="M216.95,232.44h-.03s-.07-.04-.07-.04c-22.98,2.79-44.55,2.79-68.26,.02l-.11,.05-.1,.04c-14.65,18.25-31.01,34.92-48.28,48.25l-.03,.07-.02,.04c2.9,21.55,2.9,44.14-.02,68.35,0,0,0,.01,0,.02h0c18.87,14.32,32.49,28.57,48.36,48.33l.07,.03,.04,.02c21.62-3.06,46.2-2.93,68.26-.02l.1-.04,.11-.05c15.07-19.97,27.53-31.2,48.28-48.25l.02-.04,.03-.06c-3.31-26.87-3.31-43.23,.02-68.36,0,0,0,0,0,0h0c-17.02-14.35-35.21-29.56-48.36-48.33Zm35.63,111.45l-.02,.06v.03c-17.58,14.43-28.12,23.93-40.87,40.83l-.09,.04-.09,.04c-18.67-2.46-39.47-2.57-57.76,.02h-.03s-.06-.04-.06-.04c-13.43-16.72-24.95-28.78-40.92-40.89h0s0-.01,0-.02c2.47-20.48,2.47-39.6,.02-57.83v-.03s.04-.06,.04-.06c14.62-11.28,28.46-25.38,40.86-40.83l.09-.04,.09-.04c20.07,2.34,38.32,2.34,57.76-.02l.07,.03h.02c11.13,15.89,26.52,28.76,40.92,40.9h0s0,0,0,0c-2.82,21.27-2.82,35.11-.02,57.85Z"/>
    <g>
      <path class="cls-3" d="M206.26,372.17c-15.27-2.01-32.29-2.1-47.26,.02h-.02s-5.27,12.7-5.27,12.7h.03c18.29-2.57,39.1-2.47,57.76,0l.09-.04-5.26-12.7-.07,.03Z"/>
      <path class="cls-3" d="M206.4,257.84c9.11,12.99,21.7,23.52,33.48,33.46h0s0,0,0,0l12.71-5.26s0,0,0,0h0c-14.4-12.15-29.79-25.02-40.92-40.89h-.02s-5.27,12.7-5.27,12.7h.02Z"/>
      <path class="cls-3" d="M125.5,291.29c11.96-9.23,23.29-20.77,33.43-33.41l.07-.03-5.26-12.7-.09,.04c-12.39,15.45-26.24,29.55-40.86,40.83l-.02,.06,12.71,5.26,.02-.05Z"/>
      <path class="cls-3" d="M239.87,338.63l-.02,.05,12.71,5.26,.02-.06c-2.8-22.74-2.8-36.58,.02-57.85l-12.71,5.26c-2.31,17.4-2.31,28.72-.01,47.33Z"/>
      <path class="cls-3" d="M159.07,257.83c16.42,1.91,31.35,1.91,47.26-.02l.06,.02,5.27-12.71-.07-.03c-19.44,2.36-37.69,2.36-57.76,.02l-.09,.04,5.26,12.7,.08-.03Z"/>
      <path class="cls-3" d="M252.54,343.97v-.03s-12.69-5.26-12.69-5.26v.03c-14.38,11.81-23.01,19.58-33.44,33.41l-.08,.03,5.26,12.7,.09-.04c12.75-16.9,23.29-26.4,40.86-40.83Z"/>
      <path class="cls-3" d="M125.46,291.37v-.03s-12.7-5.26-12.7-5.26v.03c2.44,18.23,2.44,37.35-.03,57.83l12.71-5.26c2.02-16.76,2.02-32.4,.01-47.32Z"/>
      <path class="cls-3" d="M158.93,372.16c-10.99-13.68-20.41-23.55-33.48-33.46h0s0-.01,0-.02l-12.71,5.26s0,.01,0,.02h0c15.97,12.11,27.49,24.17,40.92,40.89l.06,.03,5.27-12.71-.05-.02Z"/>
    </g>
    <path class="cls-4" d="M206.4,257.84h-.02s-.06-.03-.06-.03c-15.91,1.93-30.84,1.93-47.26,.02l-.08,.03-.07,.03c-10.14,12.64-21.47,24.18-33.43,33.41l-.02,.05v.03c2,14.92,2,30.56-.02,47.32,0,0,0,.01,0,.02h0c13.07,9.91,22.49,19.78,33.48,33.46l.05,.02h.02c14.97-2.11,31.99-2.02,47.26,0l.07-.03,.08-.03c10.43-13.83,19.06-21.6,33.43-33.41v-.03s.03-.05,.03-.05c-2.29-18.61-2.29-29.93,.01-47.33,0,0,0,0,0,0h0c-11.78-9.94-24.37-20.47-33.48-33.46Zm20.75,75.54l-.02,.04v.02c-11.19,9.18-17.89,15.23-26.01,25.98l-.06,.03-.05,.02c-11.88-1.57-25.12-1.63-36.76,.01h-.01s-.05-.02-.05-.02c-8.55-10.64-15.88-18.31-26.04-26.02,0,0,0,0,0-.01,1.57-13.03,1.57-25.2,.01-36.8v-.02s.02-.04,.02-.04c9.3-7.18,18.11-16.15,26-25.98l.05-.02,.06-.02c12.77,1.49,24.39,1.49,36.76-.01l.05,.02h0c7.08,10.11,16.88,18.3,26.04,26.03h0s0,0,0,0c-1.8,13.54-1.8,22.34-.01,36.81Z"/>
    <g>
      <path class="cls-3" d="M195.78,346.76c-8.48-1.12-17.94-1.17-26.26,0h0s-5.27,12.7-5.27,12.7h.01c11.64-1.64,24.88-1.57,36.76,0l.05-.02-5.26-12.7-.04,.02Z"/>
      <path class="cls-3" d="M150.89,301.87h0s-12.71-5.27-12.71-5.27v.02c1.56,11.6,1.56,23.77-.02,36.8l12.71-5.26c1.12-9.31,1.12-18,0-26.28Z"/>
      <path class="cls-3" d="M169.48,346.75c-6.11-7.6-11.34-13.08-18.6-18.59h0s0,0,0-.01l-12.71,5.26s0,0,0,.01c10.16,7.71,17.49,15.38,26.04,26.02l.05,.02,5.27-12.71-.04-.02Z"/>
      <path class="cls-3" d="M169.56,283.24c9.12,1.06,17.42,1.06,26.25,0l.04,.02,5.27-12.71-.05-.02c-12.37,1.5-23.99,1.5-36.76,.01l-.06,.02,5.26,12.7,.04-.02Z"/>
      <path class="cls-3" d="M150.9,301.83c6.64-5.13,12.94-11.54,18.57-18.56l.04-.02-5.26-12.7-.05,.02c-7.89,9.83-16.7,18.8-26,25.98l-.02,.04,12.71,5.26v-.03Z"/>
      <path class="cls-3" d="M227.17,296.57c-9.16-7.73-18.96-15.92-26.04-26.02h0s-5.27,12.7-5.27,12.7h0c5.06,7.22,12.05,13.07,18.6,18.59l12.72-5.26s0,0,0,0h0Z"/>
      <path class="cls-3" d="M214.45,301.83c-1.28,9.67-1.28,15.96,0,26.3v.03s12.7,5.26,12.7,5.26l.02-.04c-1.78-14.47-1.78-23.28,.01-36.81l-12.72,5.26s0,0,0,0Z"/>
      <path class="cls-3" d="M214.43,328.17c-7.98,6.56-12.78,10.88-18.57,18.56l-.04,.02,5.26,12.7,.06-.03c8.11-10.75,14.82-16.8,26-25.98v-.02s-12.7-5.26-12.7-5.26h0Z"/>
    </g>
    <path class="cls-4" d="M214.45,301.83s0,0,0,0c-6.55-5.52-13.54-11.37-18.6-18.59h0s-.04-.02-.04-.02c-8.84,1.07-17.13,1.07-26.25,0l-.04,.02-.04,.02c-5.63,7.02-11.93,13.43-18.57,18.56v.03s-.02,0-.02,0c1.12,8.29,1.12,16.97,0,26.28,0,0,0,0,0,.01h0c7.26,5.51,12.49,10.99,18.6,18.59l.04,.02h0c8.31-1.17,17.77-1.13,26.26,0l.04-.02,.04-.02c5.8-7.68,10.59-12,18.57-18.56h0s.01-.04,.01-.04c-1.27-10.34-1.27-16.63,0-26.3Zm-12.73,21.08c-4.79,3.94-7.67,6.53-11.14,11.14h-.02s-.02,.02-.02,.02c-5.09-.67-10.76-.7-15.75,0,0,0,0,0,0,0h-.02c-3.66-4.57-6.8-7.86-11.16-11.16h0s0-.01,0-.02c.67-5.58,.67-10.79,0-15.76h0s0-.02,0-.02c3.99-3.08,7.76-6.92,11.14-11.14h.02s.02-.02,.02-.02c5.47,.64,10.45,.64,15.75,0h.02s0,.01,0,.01c3.03,4.32,7.22,7.83,11.15,11.14,0,0,0,0,0,0h0c-.77,5.8-.77,9.58,0,15.78v.02s-.01,0-.01,0Z"/>
    <polygon class="cls-3" points="182.68 315.02 182.7 314.98 182.66 315 182.67 315.01 182.68 315.02"/>
    <polygon class="cls-3" points="182.66 315 182.64 315 182.67 315.01 182.66 315"/>
    <polygon class="cls-3" points="182.68 315.03 182.68 315.02 182.67 315.01 182.68 315.03"/>
    <path class="cls-3" d="M201.74,307.11s0,0,0,0c-3.92-3.31-8.12-6.82-11.15-11.14,0,0,0,0,0,0h-.02c-5.3,.63-10.28,.63-15.75,0h-.02s-.02,.02-.02,.02c-3.38,4.21-7.16,8.06-11.14,11.14v.02s-.01,0-.01,0c.67,4.97,.67,10.18,0,15.76,0,0,0,.01,0,.02h0c4.36,3.3,7.5,6.59,11.16,11.15h.02s0,0,0,0c4.99-.7,10.66-.68,15.75,0h.02s.02-.02,.02-.02c3.48-4.61,6.35-7.2,11.14-11.14h0s0-.02,0-.02c-.76-6.2-.76-9.98,0-15.78h0Zm-19.06,7.91h0s0,0,0,0h-.03s.02-.02,.02-.02h.04s-.02,.02-.02,.02Z"/>
    <g>
      <line class="cls-2" x1="116.95" y1="156.12" x2="248.53" y2="473.79"/>
      <line class="cls-2" x1="248.62" y1="156.09" x2="116.89" y2="473.91"/>
      <line class="cls-2" x1="341.82" y1="249.1" x2="23.6" y2="380.9"/>
      <line class="cls-2" x1="341.64" y1="380.76" x2="23.51" y2="249.09"/>
    </g>
    <circle class="cls-4" cx="182.67" cy="315.01" r="2.49"/>
  </g>
</svg>